<svg xmlns="http://www.w3.org/2000/svg" viewBox="0 0 600 600" width="600" height="600" role="img">
  <rect width="600" height="600" fill="#f5f3ff"/>
  <circle cx="300" cy="320" r="215" fill="#ede9fe"/>
  <circle cx="492" cy="108" r="17" fill="#fcd34d"/>
  <circle cx="96" cy="152" r="11" fill="#c4b5fd"/>
  <circle cx="520" cy="470" r="13" fill="#fbbf24"/>
  <circle cx="74" cy="392" r="8" fill="#fcd34d"/>
  <ellipse cx="300" cy="512" rx="120" ry="20" fill="#1c1917" opacity="0.07"/>
  
  
  <path d="M188 168h224l-30 306a20 20 0 0 1-20 18H238a20 20 0 0 1-20-18Z" fill="#ffffff" stroke="#d6d3d1" stroke-width="3"/>
  <ellipse cx="300" cy="168" rx="112" ry="22" fill="#e7e5e4"/>
  <path d="M188 168h44l-26 324h-18Z" fill="#ffffff" opacity="0.45"/>
  <g transform="translate(300 330) scale(1.8)">
    <path d="M0 16c-12-10-22-17-22-27a11 11 0 0 1 22-5 11 11 0 0 1 22 5c0 10-10 17-22 27Z" fill="#6d28d9"/>
    <rect x="-30" y="26" width="60" height="7" rx="3.5" fill="#fbbf24"/>
    <rect x="-20" y="40" width="40" height="6" rx="3" fill="#6d28d9" opacity="0.45"/>
  </g>
</svg>
