<svg xmlns="http://www.w3.org/2000/svg" viewBox="0 0 600 600" width="600" height="600" role="img">
  <rect width="600" height="600" fill="#f5f3ff"/>
  <circle cx="300" cy="320" r="215" fill="#ede9fe"/>
  <circle cx="492" cy="108" r="17" fill="#fcd34d"/>
  <circle cx="96" cy="152" r="11" fill="#c4b5fd"/>
  <circle cx="520" cy="470" r="13" fill="#fbbf24"/>
  <circle cx="74" cy="392" r="8" fill="#fcd34d"/>
  <ellipse cx="300" cy="500" rx="170" ry="24" fill="#1c1917" opacity="0.07"/>
  <rect x="136" y="236" width="328" height="252" rx="18" fill="#6d28d9"/>
  <rect x="120" y="196" width="360" height="66" rx="16" fill="#7c3aed"/>
  <rect x="272" y="196" width="56" height="292" fill="#fbbf24"/>
  <path d="M300 196c-32 0-58-14-58-36s26-32 58 4c32-36 58-14 58 4s-26 28-58 28Z" fill="#fcd34d"/>
  <circle cx="300" cy="166" r="14" fill="#f59e0b"/>
  <rect x="160" y="300" width="84" height="84" rx="12" fill="#ffffff" opacity="0.3"/>
  <rect x="356" y="300" width="84" height="84" rx="12" fill="#ffffff" opacity="0.3"/>
</svg>
